<svg width="106" height="30" viewBox="0 0 106 30" fill="none" xmlns="http://www.w3.org/2000/svg">
<path d="M68.025 20.4399C68.025 25.1716 64.1799 29.0182 59.45 29.0182H41.4911C40.0279 29.0182 38.8445 27.8344 38.8445 26.3706C38.8445 24.9068 40.0279 23.7229 41.4911 23.7229H59.45C61.2611 23.7229 62.7318 22.2516 62.7318 20.4399C62.7318 18.6281 61.2611 17.1568 59.45 17.1568C59.45 17.1568 53.2835 17.1568 53.2797 17.1568H46.6595C41.9334 17.1568 38.0845 13.3101 38.0845 8.57839C38.0845 3.84666 41.9334 0 46.6633 0H64.626C66.0892 0 67.2726 1.18388 67.2726 2.64765C67.2726 4.11142 66.0892 5.2953 64.626 5.2953H46.6633C44.8522 5.2953 43.3815 6.76664 43.3815 8.57839C43.3815 10.3901 44.8522 11.8615 46.6633 11.8615H59.4538C64.1836 11.8615 68.0288 15.7081 68.0288 20.4399H68.025ZM105.954 8.64269C105.954 10.9424 104.99 13.0151 103.448 14.494C104.99 15.9691 105.954 18.0456 105.954 20.3453V20.4928C105.954 24.9673 102.313 28.6098 97.8406 28.6098H80.6946C80.4601 28.6098 80.2333 28.5757 80.0216 28.5076C79.099 28.2202 78.4261 27.3578 78.4261 26.3403V2.64765C78.4261 1.39569 79.4431 0.378236 80.6946 0.378236C80.7286 0.378236 80.7588 0.378236 80.7929 0.382018C80.8269 0.382018 80.8571 0.378236 80.8912 0.378236H97.8444C102.317 0.378236 105.958 4.02065 105.958 8.49518V8.64269H105.954ZM101.417 20.3453C101.417 18.3709 99.8142 16.7672 97.8406 16.7672H96.782V16.7596H82.9631V24.0709H97.8406C99.8142 24.0709 101.417 22.4672 101.417 20.4928V20.3453ZM101.417 8.49518C101.417 6.52078 99.8142 4.91707 97.8406 4.91707H82.9631V12.2208H97.8406C99.8142 12.2208 101.417 10.6171 101.417 8.64269V8.49518ZM19.9214 15.4396L24.1748 14.4902C24.3072 14.46 24.4433 14.4448 24.5756 14.4448C24.7079 14.4448 24.8441 14.46 24.9764 14.4902L25.5208 14.6112L18.5225 2.03491C18.0612 1.20657 17.1954 0.688389 16.2464 0.67326C15.2974 0.650566 14.4165 1.15362 13.9326 1.97061L0.370707 24.8236C-0.374117 26.0794 0.0379938 27.7058 1.29701 28.4509C2.55225 29.196 4.17801 28.7837 4.92283 27.5242L16.1368 8.62756L19.9214 15.4358V15.4396ZM29.1013 21.0564L24.9726 21.9755C24.8403 22.0058 24.7042 22.0209 24.5718 22.0209C24.4395 22.0209 24.3034 22.0058 24.1711 21.9755L23.4678 21.8166L26.7156 27.6528C27.1995 28.5228 28.1031 29.0145 29.0294 29.0145C29.4642 29.0145 29.9066 28.9086 30.3149 28.6816C31.5928 27.9705 32.0503 26.3593 31.3395 25.0808L29.1013 21.0526V21.0564ZM24.5718 15.9616L24.5 15.9691L14.3447 18.2347L16.8249 18.787V22.6904C16.4998 22.8341 16.2729 23.1669 16.2729 23.5527C16.2729 23.878 16.4355 24.1655 16.6775 24.3319C16.4317 24.4983 16.2729 24.7858 16.2729 25.1111C16.2729 25.1489 16.2729 25.1867 16.2805 25.2245V28.4849H18.0915V25.1111C18.0915 24.7858 17.9289 24.4983 17.6869 24.3319C17.9327 24.1655 18.0915 23.878 18.0915 23.5527C18.0915 23.1669 17.8646 22.8341 17.5395 22.6904V18.9458L24.5038 20.5004L24.5756 20.5079L24.6475 20.5004L34.8028 18.2347L24.6475 15.9691L24.5756 15.9616H24.5718Z" fill="white"/>
</svg>
