<svg width="15" height="15" viewBox="0 0 15 15" fill="none" xmlns="http://www.w3.org/2000/svg">
<path fill-rule="evenodd" clip-rule="evenodd" d="M4.78797 0.148438L14.2928 0.148438C14.4609 0.148438 14.6221 0.216484 14.7409 0.337608C14.8597 0.458732 14.9265 0.623011 14.9265 0.794306V10.4823C14.9265 10.839 14.6428 11.1282 14.2928 11.1282C13.9429 11.1282 13.6592 10.839 13.6592 10.4823V2.35357L2.06774 14.1684C1.82029 14.4206 1.41908 14.4206 1.17162 14.1684C0.924158 13.9161 0.924158 13.5072 1.17162 13.255L12.763 1.44017L4.78797 1.44017C4.43801 1.44017 4.15431 1.15101 4.15431 0.794306C4.15431 0.437603 4.43801 0.148438 4.78797 0.148438Z" fill="#FFD11A"/>
</svg>
